<?xml version="1.0" encoding="UTF-8"?>
<svg version="1.1" xmlns="http://www.w3.org/2000/svg" width="206" height="189">
<path d="M0 0 C1.31821999 -0.01029488 1.31821999 -0.01029488 2.66307068 -0.02079773 C5.55614565 -0.03903793 8.44867697 -0.03523262 11.34179688 -0.02954102 C13.35909196 -0.03410374 15.37638548 -0.03940958 17.39367676 -0.04542542 C21.61684494 -0.05435075 25.83982394 -0.05193943 30.06298828 -0.04199219 C35.47018876 -0.03049595 40.87673683 -0.05072717 46.28385162 -0.07990932 C50.44806045 -0.09826872 54.61211279 -0.09797949 58.77635193 -0.0922718 C60.76982031 -0.0921186 62.76329931 -0.09816238 64.75672913 -0.11056328 C67.54526553 -0.12546861 70.3325947 -0.11480007 73.12109375 -0.09765625 C73.94101303 -0.10732422 74.76093231 -0.11699219 75.60569763 -0.12695312 C80.88787819 -0.05907378 83.84384225 0.94817143 88.06054688 4.40405273 C91.98059209 8.72961987 92.18541614 12.6402866 92.13891602 18.33081055 C92.1330397 19.52595276 92.12716339 20.72109497 92.12110901 21.95245361 C92.1085331 23.88529205 92.1085331 23.88529205 92.09570312 25.85717773 C92.0962427 28.58766253 92.10499612 31.3181129 92.11328125 34.04858398 C92.12550878 38.35218929 92.12727799 42.65480146 92.0847168 46.95825195 C92.05114735 50.44538259 92.05687797 53.93055927 92.08828545 57.41768646 C92.09555057 59.3785046 92.06189097 61.33933822 92.02735901 63.29986572 C92.11245777 69.64857739 92.38697367 73.51067135 96.99584961 78.12182617 C98.33818649 79.23127851 99.6914308 80.32782137 101.06054688 81.40405273 C103.98308988 85.05723149 104.54367406 87.90772508 104.34570312 92.47827148 C103.7749492 96.33281509 102.07128354 98.54726509 99.15953064 101.01551819 C94.40583518 103.14546493 89.81643382 102.82947496 84.66430664 102.80810547 C83.51253937 102.81496872 82.36077209 102.82183197 81.17410278 102.8289032 C77.36659418 102.84720541 73.55949628 102.84332864 69.75195312 102.83764648 C67.1054623 102.8422066 64.45897265 102.84751166 61.81248474 102.85353088 C56.26516797 102.86355649 50.7179678 102.86026482 45.1706543 102.85009766 C38.76589156 102.83861808 32.36154765 102.8526909 25.9568401 102.87949413 C19.78610247 102.90434766 13.61555765 102.90682493 7.44477654 102.90037727 C4.82331585 102.90022383 2.20184718 102.90628716 -0.41958427 102.91866875 C-4.08464619 102.93354025 -7.74878538 102.92292841 -11.41381836 102.90576172 C-13.03878487 102.92026367 -13.03878487 102.92026367 -14.69657898 102.93505859 C-20.74942789 102.87567103 -24.36513064 102.50564889 -28.93945312 98.40405273 C-31.38117007 94.74147732 -31.64411804 92.51145396 -31.59960938 88.18139648 C-30.29722177 82.70212082 -25.92922719 79.14896702 -21.93945312 75.40405273 C-19.2335182 72.69811781 -19.68843844 71.28953886 -19.68408203 67.50488281 C-19.67364365 65.64703911 -19.67364365 65.64703911 -19.66299438 63.75166321 C-19.66367542 63.08755243 -19.66435646 62.42344166 -19.66505814 61.73920631 C-19.66602302 59.65762087 -19.65308404 57.57655242 -19.63607788 55.49504089 C-19.58981019 49.57632536 -19.56522456 43.65765959 -19.55859375 37.73876953 C-19.55355958 34.11820205 -19.52920759 30.49816889 -19.49326706 26.87778282 C-19.48350629 25.50201321 -19.48111674 24.12616969 -19.48643875 22.75037575 C-19.53754835 8.87909438 -19.53754835 8.87909438 -14.93945312 3.40405273 C-9.9028051 0.19439323 -5.77492349 -0.03170638 0 0 Z " fill="#212121" transform="translate(65.939453125,40.595947265625)"/>
<path d="M0 0 C1.31821999 -0.01029488 1.31821999 -0.01029488 2.66307068 -0.02079773 C5.55614565 -0.03903793 8.44867697 -0.03523262 11.34179688 -0.02954102 C13.35909196 -0.03410374 15.37638548 -0.03940958 17.39367676 -0.04542542 C21.61684494 -0.05435075 25.83982394 -0.05193943 30.06298828 -0.04199219 C35.47018876 -0.03049595 40.87673683 -0.05072717 46.28385162 -0.07990932 C50.44806045 -0.09826872 54.61211279 -0.09797949 58.77635193 -0.0922718 C60.76982031 -0.0921186 62.76329931 -0.09816238 64.75672913 -0.11056328 C67.54526553 -0.12546861 70.3325947 -0.11480007 73.12109375 -0.09765625 C73.94101303 -0.10732422 74.76093231 -0.11699219 75.60569763 -0.12695312 C80.88787819 -0.05907378 83.84384225 0.94817143 88.06054688 4.40405273 C91.98059209 8.72961987 92.18541614 12.6402866 92.13891602 18.33081055 C92.1330397 19.52595276 92.12716339 20.72109497 92.12110901 21.95245361 C92.1085331 23.88529205 92.1085331 23.88529205 92.09570312 25.85717773 C92.0962427 28.58766253 92.10499612 31.3181129 92.11328125 34.04858398 C92.12550878 38.35218929 92.12727799 42.65480146 92.0847168 46.95825195 C92.05114735 50.44538259 92.05687797 53.93055927 92.08828545 57.41768646 C92.09555057 59.3785046 92.06189097 61.33933822 92.02735901 63.29986572 C92.11245777 69.64857739 92.38697367 73.51067135 96.99584961 78.12182617 C98.33818649 79.23127851 99.6914308 80.32782137 101.06054688 81.40405273 C103.98308988 85.05723149 104.54367406 87.90772508 104.34570312 92.47827148 C103.7749492 96.33281509 102.07128354 98.54726509 99.15953064 101.01551819 C94.40583518 103.14546493 89.81643382 102.82947496 84.66430664 102.80810547 C83.51253937 102.81496872 82.36077209 102.82183197 81.17410278 102.8289032 C77.36659418 102.84720541 73.55949628 102.84332864 69.75195312 102.83764648 C67.1054623 102.8422066 64.45897265 102.84751166 61.81248474 102.85353088 C56.26516797 102.86355649 50.7179678 102.86026482 45.1706543 102.85009766 C38.76589156 102.83861808 32.36154765 102.8526909 25.9568401 102.87949413 C19.78610247 102.90434766 13.61555765 102.90682493 7.44477654 102.90037727 C4.82331585 102.90022383 2.20184718 102.90628716 -0.41958427 102.91866875 C-4.08464619 102.93354025 -7.74878538 102.92292841 -11.41381836 102.90576172 C-13.03878487 102.92026367 -13.03878487 102.92026367 -14.69657898 102.93505859 C-20.74942789 102.87567103 -24.36513064 102.50564889 -28.93945312 98.40405273 C-31.38117007 94.74147732 -31.64411804 92.51145396 -31.59960938 88.18139648 C-30.29722177 82.70212082 -25.92922719 79.14896702 -21.93945312 75.40405273 C-19.2335182 72.69811781 -19.68843844 71.28953886 -19.68408203 67.50488281 C-19.67364365 65.64703911 -19.67364365 65.64703911 -19.66299438 63.75166321 C-19.66367542 63.08755243 -19.66435646 62.42344166 -19.66505814 61.73920631 C-19.66602302 59.65762087 -19.65308404 57.57655242 -19.63607788 55.49504089 C-19.58981019 49.57632536 -19.56522456 43.65765959 -19.55859375 37.73876953 C-19.55355958 34.11820205 -19.52920759 30.49816889 -19.49326706 26.87778282 C-19.48350629 25.50201321 -19.48111674 24.12616969 -19.48643875 22.75037575 C-19.53754835 8.87909438 -19.53754835 8.87909438 -14.93945312 3.40405273 C-9.9028051 0.19439323 -5.77492349 -0.03170638 0 0 Z M-9.93945312 11.40405273 C-10.19545241 14.20115298 -10.19545241 14.20115298 -10.08374023 17.51513672 C-10.06810532 18.80085068 -10.0524704 20.08656464 -10.03636169 21.41123962 C-10.02432646 22.10126509 -10.01229122 22.79129055 -9.99989128 23.50222588 C-9.94339218 27.16917765 -9.94395199 30.83634301 -9.93359375 34.50366211 C-9.91612274 39.16521342 -9.88265304 43.82507938 -9.79223633 48.48583984 C-9.72058446 52.25613121 -9.70370706 56.02338084 -9.72149849 59.79426765 C-9.71840113 61.22276825 -9.69582819 62.65137936 -9.6523571 64.07922173 C-9.30617066 75.94056456 -9.30617066 75.94056456 -13.50564575 80.6321106 C-15.47613902 82.60883422 -17.48889494 84.29075696 -19.67384338 86.05238342 C-20.4214946 86.8284343 -21.16914581 87.60448517 -21.93945312 88.40405273 C-21.60945313 90.05405273 -21.27945313 91.70405273 -20.93945312 93.40405273 C17.01054688 93.40405273 54.96054688 93.40405273 94.06054688 93.40405273 C94.39054687 91.75405273 94.72054687 90.10405273 95.06054688 88.40405273 C92.75754311 85.91678702 92.75754311 85.91678702 89.69726562 83.55664062 C85.11988656 79.42590466 83.25442221 76.499494 82.76757812 70.12841797 C82.74777202 67.39071652 82.78393822 64.6948367 82.87304688 61.96264648 C82.87875611 60.50343414 82.87914773 59.04419234 82.87451172 57.5849762 C82.87451172 53.77847726 82.93719716 49.97579979 83.01654053 46.17022705 C83.13218472 40.05070862 83.14628813 33.92992147 83.16903687 27.80949593 C83.18534856 25.67608364 83.22583067 23.54422022 83.27075195 21.41123962 C83.2864624 20.12552567 83.30217285 18.83981171 83.31835938 17.51513672 C83.34043457 16.38027328 83.36250977 15.24540985 83.38525391 14.07615662 C83.27810059 13.19436234 83.17094727 12.31256805 83.06054688 11.40405273 C79.22855163 8.84938924 76.11438509 9.12303893 71.67358398 9.14526367 C70.81804428 9.14175903 69.96250458 9.13825439 69.08103943 9.13464355 C66.24990758 9.12583272 63.41902507 9.13167259 60.58789062 9.13842773 C58.62398734 9.13708102 56.66008439 9.13514044 54.69618225 9.13262939 C50.57956774 9.12967911 46.46303998 9.13397318 42.34643555 9.14331055 C37.06111985 9.1547125 31.77600709 9.14814028 26.49069881 9.13616562 C22.43561768 9.12895084 18.38058496 9.13123306 14.3255024 9.1364212 C12.37618549 9.13775837 10.42686424 9.13610765 8.47755241 9.1314621 C5.75762094 9.12640232 3.03802185 9.13409896 0.31811523 9.14526367 C-0.49284607 9.14121521 -1.30380737 9.13716675 -2.13934326 9.13299561 C-6.50659234 8.99512577 -6.50659234 8.99512577 -9.93945312 11.40405273 Z " fill="#131313" transform="translate(65.939453125,40.595947265625)"/>
<path d="M0 0 C1.21644196 0.00607269 1.21644196 0.00607269 2.4574585 0.01226807 C3.31124588 0.00876343 4.16503326 0.00525879 5.04469299 0.00164795 C7.87645519 -0.00717859 10.70796899 -0.00131646 13.53973389 0.00543213 C15.50267078 0.00408562 17.46560734 0.00214521 19.42854309 -0.00036621 C23.54693775 -0.00331883 27.66524577 0.00098412 31.78363037 0.01031494 C37.0677554 0.02170205 42.3516771 0.01515555 47.63579464 0.00317001 C51.69091834 -0.00405126 55.74599371 -0.00175929 59.80111885 0.0034256 C61.74960924 0.00476174 63.69810398 0.00311561 65.64658928 -0.00153351 C68.3688204 -0.00660228 71.0907208 0.0011168 73.81292725 0.01226807 C74.62186432 0.0082196 75.43080139 0.00417114 76.26425171 0 C80.10547556 0.02920825 81.92712983 0.08921693 85.19989014 2.27105713 C85.52459717 4.94316101 85.52459717 4.94316101 85.45770264 8.38214111 C85.44199219 9.66785507 85.42628174 10.95356903 85.41009521 12.27824402 C85.39556305 12.96826948 85.38103088 13.65829494 85.36605835 14.36923027 C85.32452847 16.53602058 85.30828695 18.70156947 85.30023193 20.86872864 C85.2763524 27.03093436 85.23605762 33.1918267 85.10760498 39.35284424 C85.03084661 43.12304797 85.0088936 46.89035137 85.02087402 50.66127205 C85.01528479 52.08981283 84.98992593 53.51843358 84.94335938 54.94622612 C84.61726919 63.91176759 84.61726919 63.91176759 88.76385498 71.49911499 C90.73453903 73.47627208 92.74743767 75.15777765 94.93304443 76.91938782 C95.68110352 77.69543869 96.4291626 78.47148956 97.19989014 79.27105713 C96.86989014 80.92105713 96.53989014 82.57105713 96.19989014 84.27105713 C58.24989014 84.27105713 20.29989014 84.27105713 -18.80010986 84.27105713 C-19.29510986 81.79605713 -19.29510986 81.79605713 -19.80010986 79.27105713 C-17.53450012 76.91938782 -17.53450012 76.91938782 -14.43902588 74.42364502 C-9.8632651 70.29380486 -7.99304504 67.36255554 -7.49127197 60.99542236 C-7.4647412 58.25769666 -7.49426422 55.56207218 -7.57745361 52.82965088 C-7.58061759 51.37042963 -7.57861626 49.91118903 -7.57173157 48.45198059 C-7.56611241 44.64553913 -7.62398746 40.84285778 -7.69781494 37.03723145 C-7.7771922 32.39232262 -7.78753906 27.74683763 -7.80066013 23.1013422 C-7.81104129 19.49288454 -7.83408938 15.88620405 -7.89701843 12.27824402 C-7.91265335 10.99253006 -7.92828827 9.7068161 -7.94439697 8.38214111 C-7.96425156 7.24727768 -7.98410614 6.11241425 -8.00456238 4.94316101 C-7.59957058 -0.34990252 -4.57947342 0.03495472 0 0 Z M-3.80010986 4.27105713 C-3.80010986 23.74105713 -3.80010986 43.21105713 -3.80010986 63.27105713 C24.24989014 63.27105713 52.29989014 63.27105713 81.19989014 63.27105713 C81.19989014 43.80105713 81.19989014 24.33105713 81.19989014 4.27105713 C53.14989014 4.27105713 25.09989014 4.27105713 -3.80010986 4.27105713 Z " fill="#C7C7C7" transform="translate(63.80010986328125,49.72894287109375)"/>
<path d="M0 0 C1.18615402 -0.0010952 1.18615402 -0.0010952 2.39627075 -0.00221252 C4.99950732 0.00125974 7.60093506 0.04010125 10.20385742 0.0793457 C12.01274132 0.08867517 13.82163788 0.09579065 15.63053894 0.1007843 C20.38360689 0.11984365 25.1359067 0.16893508 29.88867188 0.2243042 C34.7416749 0.27551975 39.59480247 0.29830326 44.44799805 0.32348633 C53.96461094 0.377055 63.4806546 0.46235482 72.99682617 0.56762695 C72.99682617 1.22762695 72.99682617 1.88762695 72.99682617 2.56762695 C73.98682617 2.89762695 74.97682617 3.22762695 75.99682617 3.56762695 C78.18432617 5.50512695 78.18432617 5.50512695 79.99682617 7.56762695 C79.99682617 8.22762695 79.99682617 8.88762695 79.99682617 9.56762695 C69.43682617 9.56762695 58.87682617 9.56762695 47.99682617 9.56762695 C48.98682617 11.54762695 48.98682617 11.54762695 49.99682617 13.56762695 C38.77682617 13.56762695 27.55682617 13.56762695 15.99682617 13.56762695 C16.32682617 12.24762695 16.65682617 10.92762695 16.99682617 9.56762695 C6.43682617 9.56762695 -4.12317383 9.56762695 -15.00317383 9.56762695 C-11.35777449 2.27682828 -8.10784795 -0.19711003 0 0 Z " fill="#A7A7A7" transform="translate(70.003173828125,116.432373046875)"/>
<path d="M0 0 C0.66 0.33 1.32 0.66 2 1 C-0.31 3.31 -2.62 5.62 -5 8 C-5 5 -5 5 -2.5 2.3125 C-1.675 1.549375 -0.85 0.78625 0 0 Z " fill="#676767" transform="translate(54,42)"/>
</svg>
